# xmcd CD database file
#
# Track frame offsets:
#	157
#	18065
#	35987
#	49025
#	61762
#	72962
#	88425
#	99885
#	110765
#	121372
#	133292
#	144745
#	153527
#	167447
#	180930
#	191045
#	203237
#	216165
#
# Disc length: 3078 seconds
#
# Submitted via: cddb-tool 0.4.5
#
#blues,classical,country,data,folk,jazz,newage,reggae,rock,soundtrack,misc
# Revision: 0
# Processed by: cddbd v1.5.1PL2 Copyright (c) Steve Scherf et al.
#
DISCID=080c0412
DTITLE=Robert Cogoi - Mes premiers grands succes Vol.4
DYEAR=2002
DGENRE=Chanson
TTITLE0=Tu Me Manques A Mourir
TTITLE1=Danse Avec Moi
TTITLE2=L'église
TTITLE3=Monica
TTITLE4=Ne Pleure Pas Maria
TTITLE5=Oublie Barbara
TTITLE6=Les Petites Bottes
TTITLE7=Buona Fortuna
TTITLE8=Si Tu Ne Me Crois Pas
TTITLE9=Mon Ile Aux Cocotiers
TTITLE10=Seche Tes Larmes
TTITLE11=Fille Du Soleil
TTITLE12=Je Suis Seul Ce Soir
TTITLE13=Qu'es-Tu Devenue Toi ?
TTITLE14=Le Chemin Qu'il Faut Suivre
TTITLE15=Je Tire Ma Reverence
TTITLE16=El Bandido
TTITLE17=My River Of Memories (Pres De Ma Riviere)
EXTD=
EXTT0=
EXTT1=
EXTT2=
EXTT3=
EXTT4=
EXTT5=
EXTT6=
EXTT7=
EXTT8=
EXTT9=
EXTT10=
EXTT11=
EXTT12=
EXTT13=
EXTT14=
EXTT15=
EXTT16=
EXTT17=
PLAYORDER=
